<svg xmlns="http://www.w3.org/2000/svg" viewBox="0 0 64 64">
  <defs>
    <linearGradient id="bg" x1="0%" y1="0%" x2="100%" y2="100%">
      <stop offset="0%" stop-color="#0a1022" />
      <stop offset="100%" stop-color="#2c1459" />
    </linearGradient>
    <linearGradient id="metal" x1="0%" y1="0%" x2="100%" y2="100%">
      <stop offset="0%" stop-color="#f7c35d" />
      <stop offset="100%" stop-color="#f59e0b" />
    </linearGradient>
    <linearGradient id="oil" x1="0%" y1="0%" x2="100%" y2="100%">
      <stop offset="0%" stop-color="#61d8ff" />
      <stop offset="100%" stop-color="#ba68ff" />
    </linearGradient>
  </defs>
  <rect width="64" height="64" rx="16" fill="url(#bg)" />
  <path d="M40 12h7c2.2 0 4 1.8 4 4v5c0 2.2-1.8 4-4 4h-6v6c0 2.8-2.2 5-5 5h-2v12c0 6.6-5.4 12-12 12h-4c-6.6 0-12-5.4-12-12V24c0-6.6 5.4-12 12-12h11c6.6 0 12 5.4 12 12v-4c0-2.2 1.8-4 4-4h3v-4Z" fill="none" stroke="url(#metal)" stroke-width="3"/>
  <path d="M16 38c4-3 8.4-4 13.5-4 5.2 0 9.7 1.3 14.5 4.5V47c0 5-4 9-9 9H24c-4.4 0-8-3.6-8-8v-10Z" fill="url(#oil)"/>
</svg>
